<svg width="81" height="24" viewBox="0 0 81 24" fill="none" xmlns="http://www.w3.org/2000/svg">
<g clip-path="url(#clip0_6_612)">
<path d="M22.0623 7.4728C21.6312 6.4924 21.0608 5.57873 20.3682 4.75984C19.3446 3.51317 18.0672 2.49627 16.6199 1.77607C15.1727 1.05589 13.5886 0.648732 11.9717 0.581405C10.3549 0.514078 8.74211 0.788105 7.23942 1.38546C5.7368 1.98282 4.37835 2.88995 3.25353 4.04716C2.12871 5.20436 1.26301 6.58543 0.713418 8.09943C0.163831 9.61337 -0.0571988 11.226 0.0648906 12.831C0.186989 14.4361 0.649417 15.9973 1.42177 17.4117C2.19411 18.8263 3.25886 20.062 4.54592 21.0377C5.37176 21.6762 6.28431 22.1953 7.25636 22.5795C8.61923 23.1351 10.0779 23.4212 11.5507 23.4221C14.5911 23.4154 17.5046 22.2099 19.6529 20.0698C21.8011 17.9298 23.0087 15.0299 23.0109 12.0057C23.0132 10.4457 22.6902 8.90229 22.0623 7.4728ZM11.5423 2.89782C12.865 2.89769 14.1717 3.18525 15.3708 3.74036C15.0784 3.86604 14.771 3.95382 14.4561 4.00155C13.4198 4.15076 12.4599 4.6293 11.7195 5.36577C10.9791 6.10222 10.498 7.05709 10.348 8.08789C10.2822 8.66594 10.0178 9.20371 9.59968 9.61051C9.18146 10.0173 8.63509 10.268 8.05258 10.3206C7.01635 10.4698 6.05636 10.9483 5.316 11.6848C4.57564 12.4213 4.09454 13.3761 3.94454 14.4069C3.89375 14.9566 3.65798 15.4731 3.27539 15.8729C2.61527 14.4855 2.31872 12.9545 2.41336 11.4224C2.50798 9.89029 2.99071 8.40691 3.81661 7.11029C4.6425 5.81367 5.78475 4.74594 7.13705 4.00647C8.48929 3.26701 10.0077 2.87983 11.5507 2.88097L11.5423 2.89782ZM4.53745 17.9034C4.63909 17.8107 4.74073 17.7265 4.84238 17.6254C5.59593 16.8987 6.07962 15.9394 6.21456 14.904C6.26925 14.3219 6.53046 13.7783 6.95144 13.3706C7.35655 12.9511 7.90178 12.6934 8.48458 12.646C9.5208 12.4968 10.4807 12.0182 11.2211 11.2818C11.9615 10.5453 12.4426 9.59046 12.5926 8.55966C12.6292 7.95097 12.8918 7.37743 13.3295 6.95046C13.7446 6.53914 14.295 6.2908 14.8796 6.25112C15.8315 6.12084 16.7193 5.69986 17.4206 5.0463C18.2191 5.70522 18.8955 6.49789 19.4196 7.38857C19.3874 7.43177 19.3505 7.47137 19.3095 7.50651C18.9052 7.92966 18.3607 8.19303 17.7764 8.24794C16.739 8.39457 15.7776 8.87229 15.0368 9.60914C14.296 10.3461 13.8157 11.3024 13.6683 12.3342C13.6086 12.9142 13.3492 13.4559 12.9339 13.8674C12.5187 14.279 11.9731 14.535 11.3898 14.5922C10.3506 14.7403 9.38706 15.2179 8.64238 15.9541C7.89776 16.6903 7.41164 17.6457 7.25636 18.6786C7.21081 19.0903 7.06857 19.4857 6.84131 19.8329C5.97231 19.3195 5.19396 18.6678 4.53745 17.9034ZM11.5423 21.1556C10.6828 21.1566 9.82739 21.0374 9.00125 20.8018C9.28389 20.2777 9.4676 19.7066 9.54332 19.1167C9.60272 18.5379 9.86094 17.9973 10.2745 17.5859C10.688 17.1746 11.2315 16.9178 11.8133 16.8587C12.8511 16.7111 13.813 16.2334 14.555 15.4967C15.297 14.7602 15.7794 13.8043 15.9299 12.7724C15.9893 12.1937 16.2475 11.653 16.661 11.2417C17.0745 10.8303 17.618 10.5734 18.1999 10.5144C18.9808 10.4134 19.7252 10.1241 20.3682 9.67183C20.7253 11.0181 20.7676 12.4279 20.4919 13.7929C20.2162 15.158 19.6297 16.4422 18.7776 17.5469C17.9255 18.6514 16.8304 19.5473 15.5762 20.1655C14.322 20.7838 12.9421 21.1081 11.5423 21.1135V21.1556Z" fill="#286BD7"/>
<path d="M35.2724 20.2857H32.2852V4.05714H43.2V6.64H33.6409L35.2724 4.97143V12.4229L33.6409 11.0743H42.7864V13.6343H33.6409L35.2724 12.2857V20.2857ZM49.4503 20.2857H47.6349C46.7464 20.2857 46.0341 20.0571 45.4979 19.6C44.9618 19.1429 44.6937 18.4114 44.6937 17.4057V4.05714H47.6349V17.1086C47.6349 17.4133 47.7154 17.6419 47.8762 17.7943C48.0371 17.9467 48.263 18.0229 48.5541 18.0229H49.4503V20.2857ZM55.9762 20.56C54.766 20.56 53.7052 20.2971 52.7937 19.7714C51.8822 19.2457 51.1775 18.5029 50.6796 17.5429C50.1818 16.5829 49.9328 15.4629 49.9328 14.1829C49.9328 12.8876 50.1818 11.7638 50.6796 10.8114C51.1775 9.85905 51.8822 9.12 52.7937 8.59429C53.7052 8.06857 54.766 7.80571 55.9762 7.80571C57.1864 7.80571 58.2435 8.06857 59.1473 8.59429C60.0511 9.12 60.752 9.85905 61.2498 10.8114C61.7477 11.7638 61.9966 12.8876 61.9966 14.1829C61.9966 15.4629 61.7477 16.5829 61.2498 17.5429C60.752 18.5029 60.0511 19.2457 59.1473 19.7714C58.2435 20.2971 57.1864 20.56 55.9762 20.56ZM55.9762 18.1829C56.926 18.1829 57.6575 17.8324 58.1707 17.1314C58.6839 16.4305 58.9405 15.4476 58.9405 14.1829C58.9405 12.9333 58.6839 11.9543 58.1707 11.2457C57.6575 10.5371 56.926 10.1829 55.9762 10.1829C55.0264 10.1829 54.2911 10.5371 53.7703 11.2457C53.2494 11.9543 52.989 12.9333 52.989 14.1829C52.989 15.4476 53.2494 16.4305 53.7703 17.1314C54.2911 17.8324 55.0264 18.1829 55.9762 18.1829ZM68.7754 20.2857H65.7422L62.0426 8.08H65.0528L67.4426 16.9714L69.9013 8.08H72.4749L74.9566 16.9714L77.3464 8.08H80.3566L76.6571 20.2857H73.6239L71.1881 12.1029L68.7754 20.2857Z" fill="#286BD7"/>
</g>
<defs>
<clipPath id="clip0_6_612">
<rect width="81" height="24" fill="white"/>
</clipPath>
</defs>
</svg>
